<svg width="566" height="804" viewBox="0 0 566 804" fill="none" xmlns="http://www.w3.org/2000/svg">
<g clip-path="url(#clip0_133_24)">
<path fill-rule="evenodd" clip-rule="evenodd" d="M482.156 186.9C481.052 184.688 479.947 183.029 479.395 181.923C463.93 153.722 449.018 125.521 433.554 97.3205C431.897 94.5557 431.897 92.3439 433.002 89.5791C449.018 60.8253 464.483 32.0715 480.499 2.76479C481.052 2.21183 481.604 1.10591 482.156 0C483.261 1.65887 483.813 2.76479 484.918 3.8707C500.382 32.0715 515.846 60.8253 531.311 89.0262C532.968 91.7909 533.52 94.0028 531.863 96.7676C515.846 125.521 500.382 154.828 484.918 183.582C483.813 184.688 483.261 185.241 482.156 186.9ZM482.708 8.29436C481.604 9.40028 480.499 10.5062 480.499 11.6121C466.14 37.6011 452.332 64.1431 437.972 90.1321C436.315 92.8968 436.868 95.1087 437.972 97.3205C452.332 123.31 466.14 149.299 479.947 175.288C480.499 176.393 481.604 177.499 482.156 178.605C482.708 177.499 483.261 176.946 483.813 176.393C498.173 149.851 512.533 123.31 526.892 96.7676C528.549 94.0028 527.997 91.7909 526.34 89.5791C516.399 71.8845 507.01 54.1898 497.62 35.9422C492.65 27.0949 487.679 17.6946 482.708 8.29436Z" fill="url(#paint0_linear_133_24)"/>
<path fill-rule="evenodd" clip-rule="evenodd" d="M482.156 617.653C483.261 619.312 484.365 620.971 484.918 622.077C500.382 650.278 515.294 678.479 530.758 707.232C532.415 709.997 532.967 712.209 531.311 714.974C515.294 744.281 499.83 773.034 483.813 802.341C483.261 802.894 482.708 803.447 482.156 804.553C481.052 803.447 480.499 802.341 479.947 801.235C464.483 772.481 449.018 743.728 433.002 714.974C431.345 712.209 431.345 710.55 433.002 707.785C449.018 679.032 464.483 649.725 479.947 620.971C481.052 619.865 481.052 618.759 482.156 617.653ZM482.156 796.259C483.261 794.047 484.365 792.941 484.918 791.282C498.725 766.399 511.98 740.963 525.788 716.08C527.997 712.209 527.445 709.997 525.788 706.127C511.98 681.243 498.725 655.807 484.918 630.924C484.365 629.265 483.261 628.16 482.156 625.948C481.052 627.607 479.947 629.265 479.395 630.371C465.587 655.807 452.332 681.243 437.972 706.127C436.315 709.444 436.315 712.209 437.972 715.527C451.78 740.963 465.587 766.399 479.395 791.282C479.947 792.941 481.052 794.047 482.156 796.259Z" fill="url(#paint1_linear_133_24)"/>
<path fill-rule="evenodd" clip-rule="evenodd" d="M214.844 154.275C215.949 156.487 217.053 158.146 218.158 159.805C233.07 187.453 247.982 215.1 262.894 242.748C265.103 246.066 265.103 248.831 262.894 252.702C247.982 280.349 233.07 307.997 218.158 335.645C217.053 337.304 216.501 338.963 214.844 341.175C213.739 339.516 213.187 338.41 212.635 337.857C197.17 309.103 181.706 280.902 166.242 252.149C164.585 249.384 164.032 247.172 165.689 244.407C181.706 215.653 197.17 186.347 212.635 157.593C213.187 156.487 213.739 155.934 214.844 154.275ZM214.844 332.88C215.949 331.774 215.948 331.222 216.501 330.669C230.861 304.127 245.22 277.585 259.58 251.043C261.237 248.278 260.685 246.619 259.58 244.407C245.22 218.418 231.413 192.429 217.605 166.44C217.053 165.334 215.948 164.781 215.396 163.675C214.844 164.781 214.292 165.334 213.739 165.887C199.38 191.876 185.572 218.418 171.212 244.407C169.555 247.725 170.108 249.937 171.765 252.702C185.572 277.585 198.827 303.021 212.635 327.904C212.635 329.563 213.187 330.669 214.844 332.88Z" fill="url(#paint2_linear_133_24)"/>
<path fill-rule="evenodd" clip-rule="evenodd" d="M429.688 526.415C426.926 526.415 425.269 526.415 423.613 526.415C391.579 525.309 360.098 524.756 328.065 523.651C324.751 523.651 321.99 522.545 320.333 519.227C303.212 491.579 286.09 463.931 269.521 435.73C268.969 434.624 268.417 434.071 267.865 432.413C269.521 432.413 270.626 431.86 271.731 431.86C304.316 432.966 336.902 433.518 370.04 434.624C373.353 434.624 375.01 435.73 376.667 438.495C393.788 466.696 410.91 494.344 428.031 521.992C428.031 523.651 428.583 524.756 429.688 526.415ZM421.956 521.992C420.851 520.333 420.851 519.227 419.746 518.121C404.282 493.238 388.818 468.355 373.906 442.919C372.249 440.154 370.04 439.048 367.278 439.048C338.006 438.495 309.287 437.389 280.015 436.836C278.358 436.836 277.254 436.836 275.044 436.836C275.597 438.495 275.597 439.048 276.149 439.601C292.166 465.59 307.63 491.026 323.647 517.015C325.303 519.227 326.96 519.78 329.17 519.78C358.441 520.333 388.265 521.439 417.537 521.992C418.642 521.992 420.299 521.992 421.956 521.992Z" fill="url(#paint3_linear_133_24)"/>
<path fill-rule="evenodd" clip-rule="evenodd" d="M535.177 526.415C542.357 514.803 548.984 503.744 555.612 492.685C566.658 474.99 577.151 457.296 588.197 440.154C589.854 437.389 590.959 435.73 594.825 435.73C627.963 435.177 661.101 434.071 694.239 432.966C694.791 432.966 695.895 432.966 697 432.966C696.448 434.071 695.895 435.73 695.343 436.836C678.222 464.484 661.101 492.132 644.532 520.333C642.875 523.098 641.218 524.204 637.904 524.756C604.766 525.309 572.181 526.415 539.043 527.521C537.386 526.415 536.834 526.415 535.177 526.415ZM689.82 436.836C688.163 436.836 687.611 436.283 687.059 436.836C656.682 437.389 626.306 438.495 596.482 439.048C593.72 439.048 592.063 440.707 590.959 442.919C575.494 468.355 560.03 493.238 544.566 518.674C544.014 519.78 543.461 520.886 542.909 522.545C545.118 522.545 546.775 522.545 547.88 522.545C576.599 521.992 605.871 520.886 634.59 520.333C637.904 520.333 640.113 518.674 641.77 515.909C656.682 491.026 672.147 466.696 687.059 441.813C688.163 440.154 688.716 439.048 689.82 436.836Z" fill="url(#paint4_linear_133_24)"/>
<path fill-rule="evenodd" clip-rule="evenodd" d="M697 680.138C695.343 680.138 693.686 680.69 692.582 680.69C659.996 679.585 627.963 679.032 595.377 677.926C592.616 677.926 590.407 677.373 588.197 674.608C571.076 646.407 553.403 618.206 536.281 590.005C535.729 589.453 535.729 588.9 535.177 587.241C536.834 587.241 538.491 586.688 539.595 586.688C571.628 587.794 603.662 588.347 636.247 589.453C639.561 589.453 642.323 590.558 643.979 593.876C660.548 621.524 677.67 649.172 694.791 676.82C695.343 677.373 695.895 678.479 697 680.138ZM689.268 676.267C688.716 675.161 688.716 674.608 688.716 674.055C672.699 648.066 656.682 622.077 641.218 596.088C639.561 593.876 637.904 593.323 635.695 593.323C606.423 592.77 576.599 591.664 547.327 591.111C546.223 591.111 545.118 591.111 542.909 591.664C544.014 593.876 545.118 595.535 545.67 597.194C560.582 620.971 575.495 645.301 589.854 669.078C592.063 672.949 594.273 674.055 598.691 674.055C625.754 674.608 652.816 675.714 679.879 676.267C682.64 676.267 685.954 676.267 689.268 676.267Z" fill="url(#paint5_linear_133_24)"/>
<path fill-rule="evenodd" clip-rule="evenodd" d="M161.823 432.966C153.539 446.237 146.359 458.402 138.627 470.567C128.685 486.603 118.744 503.191 108.803 519.227C107.146 521.992 104.937 523.651 101.623 523.651C69.0372 524.204 36.4517 525.31 3.31379 526.416C2.20919 526.416 1.65689 526.416 0 526.416C0.552298 524.757 1.1046 523.651 2.20919 522.545C19.3304 494.897 35.8994 467.249 53.0206 439.601C54.6775 436.836 56.3344 435.731 59.6482 435.731C92.2338 435.178 124.819 434.072 157.957 432.966C159.062 432.413 160.166 432.966 161.823 432.966ZM103.832 519.78C120.953 492.132 137.522 465.037 154.643 436.836C152.987 436.836 152.434 436.283 151.33 436.283C121.506 436.836 91.1292 437.942 61.3051 438.495C57.9913 438.495 56.8867 440.154 55.2298 442.366C39.7655 467.249 24.8534 492.132 9.38907 517.015C8.83677 518.121 8.28447 519.78 7.17987 521.439C40.3178 521.439 72.351 520.886 103.832 519.78Z" fill="url(#paint6_linear_133_24)"/>
<path fill-rule="evenodd" clip-rule="evenodd" d="M0 278.137C35.8994 279.243 71.2464 280.349 106.593 280.902C124.819 310.762 143.597 341.175 162.376 371.587C160.166 371.587 158.509 372.14 156.853 371.587C124.819 370.481 92.786 369.928 60.2005 368.822C57.439 368.822 55.2298 368.27 53.0206 364.952C35.8994 337.304 18.7781 308.55 1.1046 280.349C0.552298 279.796 0.552298 279.243 0 278.137ZM7.73217 282.561C8.28447 283.667 8.28447 284.22 8.83677 285.326C24.3011 310.762 40.3177 336.198 55.7821 361.634C57.439 364.399 59.6482 364.952 62.4097 364.952C91.6814 365.505 120.401 366.611 149.673 367.164C151.33 367.164 152.434 367.164 154.643 367.164C153.539 364.952 152.987 363.846 151.882 362.187C136.97 337.857 122.058 314.08 107.146 289.75C104.937 285.879 102.175 284.22 97.7567 284.22C75.1125 283.667 51.916 283.114 29.2718 282.561C22.0919 282.561 15.4643 282.561 7.73217 282.561Z" fill="url(#paint7_linear_133_24)"/>
<path fill-rule="evenodd" clip-rule="evenodd" d="M429.688 587.241C428.583 589.453 427.479 591.111 426.374 592.77C409.805 619.312 393.236 646.407 377.22 672.949C375.01 676.82 372.249 677.926 368.383 677.926C336.349 678.479 304.868 679.585 272.835 680.69C271.178 680.69 270.074 680.69 267.865 680.69C268.969 678.479 269.521 677.373 270.626 675.714C287.195 648.619 304.316 620.971 320.885 593.876C322.542 591.111 324.751 589.453 328.065 589.453C360.651 588.9 393.236 587.794 426.374 586.688C426.926 586.688 427.479 586.688 429.688 587.241ZM421.956 591.664C420.299 591.664 419.746 591.111 418.642 591.111C388.818 591.664 358.441 592.77 328.617 593.323C325.856 593.323 324.751 594.982 323.094 596.641C307.63 622.077 292.166 647.513 276.701 672.396C276.149 673.502 275.597 674.608 275.044 676.267C276.701 676.267 277.806 676.267 278.91 676.267C308.182 675.714 337.454 674.608 366.726 674.055C370.04 674.055 372.249 672.396 373.906 669.631C388.818 644.748 404.282 620.418 419.194 595.535C420.299 594.429 420.851 593.323 421.956 591.664Z" fill="url(#paint8_linear_133_24)"/>
<path fill-rule="evenodd" clip-rule="evenodd" d="M267.865 123.863C272.835 123.863 276.701 123.863 281.12 123.863C309.839 124.416 339.111 125.521 367.83 126.074C372.249 126.074 375.01 127.733 377.22 131.604C393.788 158.699 410.357 185.794 426.926 212.889C427.479 213.995 428.031 215.101 429.135 216.759C427.479 216.759 426.374 217.312 425.269 217.312C392.684 216.206 360.098 215.653 326.96 214.548C324.199 214.548 322.542 213.995 320.885 211.23C303.764 183.582 286.643 154.828 268.969 126.627C268.417 126.074 268.417 125.521 267.865 123.863ZM275.044 128.286C275.597 129.945 276.149 130.498 276.701 131.051C292.166 156.487 308.182 181.923 323.647 207.359C325.303 210.124 326.96 210.677 330.274 210.677C359.546 211.23 389.37 212.336 418.642 212.889C419.746 212.889 420.851 212.336 422.508 212.336C421.956 211.23 421.403 210.677 421.403 209.571C405.939 184.135 389.922 158.699 374.458 133.263C372.801 130.498 370.592 129.945 367.278 129.945C338.559 129.392 309.839 128.286 281.12 127.733C278.91 128.286 277.254 128.286 275.044 128.286Z" fill="url(#paint9_linear_133_24)"/>
<path fill-rule="evenodd" clip-rule="evenodd" d="M535.177 217.312C536.281 215.653 536.281 214.548 536.834 213.995C553.955 186.347 571.076 158.699 587.645 130.498C589.302 127.733 591.511 126.074 594.825 126.074C627.41 125.521 659.444 124.415 692.029 123.31C693.134 123.31 694.791 123.31 696.448 123.31C695.343 124.968 695.343 126.627 694.238 127.733C677.67 155.381 660.548 182.476 643.979 210.124C642.323 212.889 641.218 214.548 637.352 214.548C604.214 215.101 571.076 216.206 537.938 217.312C537.386 217.865 536.834 217.312 535.177 217.312ZM542.357 213.442C544.566 213.442 545.118 213.442 546.223 213.442C575.494 212.889 605.319 211.783 634.59 211.23C637.904 211.23 640.113 209.571 641.77 206.806C656.682 181.923 672.147 157.593 687.059 132.71C687.611 131.604 688.716 129.945 689.268 128.286C687.059 128.286 685.954 127.733 684.297 127.733C655.025 128.286 626.306 129.392 597.034 129.945C593.72 129.945 591.511 131.604 589.854 134.369C574.942 158.699 560.03 183.582 544.566 207.912C544.014 209.571 543.461 211.23 542.357 213.442Z" fill="url(#paint10_linear_133_24)"/>
<path fill-rule="evenodd" clip-rule="evenodd" d="M535.177 278.137C536.834 278.137 537.386 277.584 538.491 277.584C571.628 278.69 604.766 279.243 637.904 280.349C640.666 280.349 642.323 280.902 643.427 283.114C660.548 311.315 678.222 340.069 695.895 368.269C696.448 368.822 696.448 369.375 697 371.034C694.791 371.034 693.686 371.587 692.029 371.587C659.996 370.481 627.963 369.928 595.93 368.822C593.168 368.822 590.407 368.269 588.75 365.505C571.076 336.751 553.955 308.55 536.281 279.796C535.729 279.796 535.729 279.243 535.177 278.137ZM689.268 367.164C688.163 365.505 687.611 363.846 686.506 362.187C671.594 337.857 656.682 313.527 641.77 289.197C639.561 285.879 637.352 284.22 632.933 284.22C604.766 283.667 576.047 282.561 547.88 282.008C546.223 282.008 544.014 282.008 541.804 282.008C542.357 283.114 542.357 284.22 542.909 284.773C558.926 310.762 574.39 336.198 590.407 362.187C592.063 364.399 593.72 364.952 595.93 364.952C625.754 365.505 655.578 366.611 684.849 367.164C687.059 367.717 687.611 367.164 689.268 367.164Z" fill="url(#paint11_linear_133_24)"/>
<path fill-rule="evenodd" clip-rule="evenodd" d="M267.865 371.587C268.969 369.375 270.074 367.717 271.178 366.058C287.747 338.963 304.316 312.421 320.885 285.326C323.094 282.008 325.303 280.902 329.17 280.902C361.203 280.349 393.236 279.243 425.269 278.137C426.926 278.137 428.031 278.137 430.24 278.137C429.136 279.796 428.583 280.902 428.031 282.008C410.91 309.656 394.341 337.304 377.22 364.952C375.563 367.717 373.906 369.375 370.04 369.375C337.454 369.928 304.868 371.034 271.731 372.14C270.626 371.587 269.521 371.587 267.865 371.587ZM422.508 282.008C420.851 282.008 419.746 282.008 418.642 282.008C388.818 282.561 358.994 283.667 329.722 284.22C326.408 284.22 324.751 285.879 323.094 288.644C307.63 313.527 292.166 338.41 277.254 363.846C276.701 364.952 276.149 366.058 275.597 367.717C277.806 367.717 280.015 367.717 281.672 367.717C309.839 367.164 338.006 366.058 366.174 365.505C370.592 365.505 372.801 363.846 375.01 360.528C389.37 336.198 404.282 312.421 419.194 288.091C420.299 286.432 420.851 284.773 422.508 282.008Z" fill="url(#paint12_linear_133_24)"/>
<path fill-rule="evenodd" clip-rule="evenodd" d="M482.156 496.003C481.052 493.791 479.947 492.685 479.395 491.026C464.483 462.825 449.018 435.178 434.106 406.977C432.449 403.659 432.449 400.894 434.106 397.576C449.571 369.376 464.483 341.175 479.947 312.974C480.499 311.868 481.604 310.209 482.708 308.55C483.813 310.209 484.918 311.315 485.47 312.421C500.934 340.622 516.399 369.376 531.863 397.576C532.967 399.788 534.072 402 532.415 404.765C516.399 434.072 500.934 463.378 484.918 492.685C483.261 493.791 483.261 494.344 482.156 496.003ZM482.156 487.156C482.708 486.05 483.261 484.944 483.813 484.391C498.173 457.849 512.532 431.86 526.34 405.318C527.997 402.553 527.445 400.341 526.34 398.129C512.532 372.14 498.173 346.704 484.365 320.715C483.813 319.609 482.708 318.504 481.604 316.845C480.499 318.504 479.947 320.162 478.842 321.268C465.035 346.704 451.78 372.14 437.42 397.024C435.763 400.341 435.763 403.106 437.42 406.424C451.227 431.86 465.035 457.296 478.842 482.179C480.499 484.391 481.052 485.497 482.156 487.156Z" fill="url(#paint13_linear_133_24)"/>
<path fill-rule="evenodd" clip-rule="evenodd" d="M214.844 650.278C213.187 648.066 212.635 646.407 211.53 645.301C196.618 617.101 181.154 589.453 166.242 561.252C164.585 558.487 164.032 556.275 165.689 552.958C181.154 524.757 196.618 496.003 212.082 467.802C212.635 466.696 213.187 465.59 214.844 463.378C231.965 494.897 248.534 525.31 265.655 556.828C248.534 587.794 231.965 618.206 214.844 650.278ZM168.451 556.275C173.422 567.887 212.082 638.113 214.844 640.878C230.308 612.677 245.22 584.476 260.685 556.275C245.22 528.074 230.308 499.874 214.292 470.567C198.827 500.427 183.915 528.627 168.451 556.275Z" fill="url(#paint14_linear_133_24)"/>
</g>
<defs>
<linearGradient id="paint0_linear_133_24" x1="-1158.38" y1="843.668" x2="1617.93" y2="-422.804" gradientUnits="userSpaceOnUse">
<stop stop-color="#B46D13"/>
<stop offset="0.1237" stop-color="#F3AD3B"/>
<stop offset="0.3065" stop-color="#F7DD80"/>
<stop offset="0.4462" stop-color="#FBDB62"/>
<stop offset="0.5538" stop-color="#F3AD3B"/>
<stop offset="0.6774" stop-color="#CC8F36"/>
<stop offset="0.7634" stop-color="#F3AD3B"/>
<stop offset="0.8333" stop-color="#F4D175"/>
<stop offset="0.9892" stop-color="#B9721A"/>
</linearGradient>
<linearGradient id="paint1_linear_133_24" x1="-925.369" y1="1354.55" x2="1851" y2="88.0577" gradientUnits="userSpaceOnUse">
<stop stop-color="#B46D13"/>
<stop offset="0.1237" stop-color="#F3AD3B"/>
<stop offset="0.3065" stop-color="#F7DD80"/>
<stop offset="0.4462" stop-color="#FBDB62"/>
<stop offset="0.5538" stop-color="#F3AD3B"/>
<stop offset="0.6774" stop-color="#CC8F36"/>
<stop offset="0.7634" stop-color="#F3AD3B"/>
<stop offset="0.8333" stop-color="#F4D175"/>
<stop offset="0.9892" stop-color="#B9721A"/>
</linearGradient>
<linearGradient id="paint2_linear_133_24" x1="-1146.36" y1="870.14" x2="1630.04" y2="-396.373" gradientUnits="userSpaceOnUse">
<stop stop-color="#B46D13"/>
<stop offset="0.1237" stop-color="#F3AD3B"/>
<stop offset="0.3065" stop-color="#F7DD80"/>
<stop offset="0.4462" stop-color="#FBDB62"/>
<stop offset="0.5538" stop-color="#F3AD3B"/>
<stop offset="0.6774" stop-color="#CC8F36"/>
<stop offset="0.7634" stop-color="#F3AD3B"/>
<stop offset="0.8333" stop-color="#F4D175"/>
<stop offset="0.9892" stop-color="#B9721A"/>
</linearGradient>
<linearGradient id="paint3_linear_133_24" x1="-1035.69" y1="1112.71" x2="1740.69" y2="-153.786" gradientUnits="userSpaceOnUse">
<stop stop-color="#B46D13"/>
<stop offset="0.1237" stop-color="#F3AD3B"/>
<stop offset="0.3065" stop-color="#F7DD80"/>
<stop offset="0.4462" stop-color="#FBDB62"/>
<stop offset="0.5538" stop-color="#F3AD3B"/>
<stop offset="0.6774" stop-color="#CC8F36"/>
<stop offset="0.7634" stop-color="#F3AD3B"/>
<stop offset="0.8333" stop-color="#F4D175"/>
<stop offset="0.9892" stop-color="#B9721A"/>
</linearGradient>
<linearGradient id="paint4_linear_133_24" x1="-989.547" y1="1213.73" x2="1786.72" y2="-52.7224" gradientUnits="userSpaceOnUse">
<stop stop-color="#B46D13"/>
<stop offset="0.1237" stop-color="#F3AD3B"/>
<stop offset="0.3065" stop-color="#F7DD80"/>
<stop offset="0.4462" stop-color="#FBDB62"/>
<stop offset="0.5538" stop-color="#F3AD3B"/>
<stop offset="0.6774" stop-color="#CC8F36"/>
<stop offset="0.7634" stop-color="#F3AD3B"/>
<stop offset="0.8333" stop-color="#F4D175"/>
<stop offset="0.9892" stop-color="#B9721A"/>
</linearGradient>
<linearGradient id="paint5_linear_133_24" x1="-931.373" y1="1341.36" x2="1844.97" y2="74.8755" gradientUnits="userSpaceOnUse">
<stop stop-color="#B46D13"/>
<stop offset="0.1237" stop-color="#F3AD3B"/>
<stop offset="0.3065" stop-color="#F7DD80"/>
<stop offset="0.4462" stop-color="#FBDB62"/>
<stop offset="0.5538" stop-color="#F3AD3B"/>
<stop offset="0.6774" stop-color="#CC8F36"/>
<stop offset="0.7634" stop-color="#F3AD3B"/>
<stop offset="0.8333" stop-color="#F4D175"/>
<stop offset="0.9892" stop-color="#B9721A"/>
</linearGradient>
<linearGradient id="paint6_linear_133_24" x1="-1081.92" y1="1011.27" x2="1694.38" y2="-255.195" gradientUnits="userSpaceOnUse">
<stop stop-color="#B46D13"/>
<stop offset="0.1237" stop-color="#F3AD3B"/>
<stop offset="0.3065" stop-color="#F7DD80"/>
<stop offset="0.4462" stop-color="#FBDB62"/>
<stop offset="0.5538" stop-color="#F3AD3B"/>
<stop offset="0.6774" stop-color="#CC8F36"/>
<stop offset="0.7634" stop-color="#F3AD3B"/>
<stop offset="0.8333" stop-color="#F4D175"/>
<stop offset="0.9892" stop-color="#B9721A"/>
</linearGradient>
<linearGradient id="paint7_linear_133_24" x1="-1140.37" y1="883.194" x2="1635.97" y2="-383.291" gradientUnits="userSpaceOnUse">
<stop stop-color="#B46D13"/>
<stop offset="0.1237" stop-color="#F3AD3B"/>
<stop offset="0.3065" stop-color="#F7DD80"/>
<stop offset="0.4462" stop-color="#FBDB62"/>
<stop offset="0.5538" stop-color="#F3AD3B"/>
<stop offset="0.6774" stop-color="#CC8F36"/>
<stop offset="0.7634" stop-color="#F3AD3B"/>
<stop offset="0.8333" stop-color="#F4D175"/>
<stop offset="0.9892" stop-color="#B9721A"/>
</linearGradient>
<linearGradient id="paint8_linear_133_24" x1="-977.6" y1="1239.96" x2="1798.7" y2="-26.5016" gradientUnits="userSpaceOnUse">
<stop stop-color="#B46D13"/>
<stop offset="0.1237" stop-color="#F3AD3B"/>
<stop offset="0.3065" stop-color="#F7DD80"/>
<stop offset="0.4462" stop-color="#FBDB62"/>
<stop offset="0.5538" stop-color="#F3AD3B"/>
<stop offset="0.6774" stop-color="#CC8F36"/>
<stop offset="0.7634" stop-color="#F3AD3B"/>
<stop offset="0.8333" stop-color="#F4D175"/>
<stop offset="0.9892" stop-color="#B9721A"/>
</linearGradient>
<linearGradient id="paint9_linear_133_24" x1="-1152.37" y1="856.845" x2="1623.94" y2="-409.624" gradientUnits="userSpaceOnUse">
<stop stop-color="#B46D13"/>
<stop offset="0.1237" stop-color="#F3AD3B"/>
<stop offset="0.3065" stop-color="#F7DD80"/>
<stop offset="0.4462" stop-color="#FBDB62"/>
<stop offset="0.5538" stop-color="#F3AD3B"/>
<stop offset="0.6774" stop-color="#CC8F36"/>
<stop offset="0.7634" stop-color="#F3AD3B"/>
<stop offset="0.8333" stop-color="#F4D175"/>
<stop offset="0.9892" stop-color="#B9721A"/>
</linearGradient>
<linearGradient id="paint10_linear_133_24" x1="-1106.09" y1="958.231" x2="1670.17" y2="-308.217" gradientUnits="userSpaceOnUse">
<stop stop-color="#B46D13"/>
<stop offset="0.1237" stop-color="#F3AD3B"/>
<stop offset="0.3065" stop-color="#F7DD80"/>
<stop offset="0.4462" stop-color="#FBDB62"/>
<stop offset="0.5538" stop-color="#F3AD3B"/>
<stop offset="0.6774" stop-color="#CC8F36"/>
<stop offset="0.7634" stop-color="#F3AD3B"/>
<stop offset="0.8333" stop-color="#F4D175"/>
<stop offset="0.9892" stop-color="#B9721A"/>
</linearGradient>
<linearGradient id="paint11_linear_133_24" x1="-1047.98" y1="1085.72" x2="1728.34" y2="-180.76" gradientUnits="userSpaceOnUse">
<stop stop-color="#B46D13"/>
<stop offset="0.1237" stop-color="#F3AD3B"/>
<stop offset="0.3065" stop-color="#F7DD80"/>
<stop offset="0.4462" stop-color="#FBDB62"/>
<stop offset="0.5538" stop-color="#F3AD3B"/>
<stop offset="0.6774" stop-color="#CC8F36"/>
<stop offset="0.7634" stop-color="#F3AD3B"/>
<stop offset="0.8333" stop-color="#F4D175"/>
<stop offset="0.9892" stop-color="#B9721A"/>
</linearGradient>
<linearGradient id="paint12_linear_133_24" x1="-1094.1" y1="984.628" x2="1682.23" y2="-281.85" gradientUnits="userSpaceOnUse">
<stop stop-color="#B46D13"/>
<stop offset="0.1237" stop-color="#F3AD3B"/>
<stop offset="0.3065" stop-color="#F7DD80"/>
<stop offset="0.4462" stop-color="#FBDB62"/>
<stop offset="0.5538" stop-color="#F3AD3B"/>
<stop offset="0.6774" stop-color="#CC8F36"/>
<stop offset="0.7634" stop-color="#F3AD3B"/>
<stop offset="0.8333" stop-color="#F4D175"/>
<stop offset="0.9892" stop-color="#B9721A"/>
</linearGradient>
<linearGradient id="paint13_linear_133_24" x1="-1041.83" y1="1099.16" x2="1734.46" y2="-167.309" gradientUnits="userSpaceOnUse">
<stop stop-color="#B46D13"/>
<stop offset="0.1237" stop-color="#F3AD3B"/>
<stop offset="0.3065" stop-color="#F7DD80"/>
<stop offset="0.4462" stop-color="#FBDB62"/>
<stop offset="0.5538" stop-color="#F3AD3B"/>
<stop offset="0.6774" stop-color="#CC8F36"/>
<stop offset="0.7634" stop-color="#F3AD3B"/>
<stop offset="0.8333" stop-color="#F4D175"/>
<stop offset="0.9892" stop-color="#B9721A"/>
</linearGradient>
<linearGradient id="paint14_linear_133_24" x1="-1029.7" y1="1125.74" x2="1746.58" y2="-140.72" gradientUnits="userSpaceOnUse">
<stop stop-color="#B46D13"/>
<stop offset="0.1237" stop-color="#F3AD3B"/>
<stop offset="0.3065" stop-color="#F7DD80"/>
<stop offset="0.4462" stop-color="#FBDB62"/>
<stop offset="0.5538" stop-color="#F3AD3B"/>
<stop offset="0.6774" stop-color="#CC8F36"/>
<stop offset="0.7634" stop-color="#F3AD3B"/>
<stop offset="0.8333" stop-color="#F4D175"/>
<stop offset="0.9892" stop-color="#B9721A"/>
</linearGradient>
<clipPath id="clip0_133_24">
<rect width="697" height="804" fill="white"/>
</clipPath>
</defs>
</svg>
