<svg width="97" height="50" viewBox="0 0 97 50" fill="none" xmlns="http://www.w3.org/2000/svg">
  <g id="Frame" clipPath="url(#clip0_167_237)">
    <path id="Vector" fillRule="evenodd" clipRule="evenodd"
      d="M-1.07769e-06 24.862C1.14793 24.3095 1.72188 23.757 2.58283 23.4808C17.2189 15.7459 31.568 8.28738 46.2041 0.82882C47.926 9.09425e-05 49.3609 9.10052e-05 51.0828 0.82882C65.432 8.28738 80.068 16.0222 94.7041 23.4808C95.2781 24.0332 96.1391 24.3095 97 24.862C96.1391 25.4145 95.5651 25.9669 94.9911 26.2432C80.068 33.978 65.4319 41.4365 50.5089 49.1714C49.3609 49.7238 48.213 50.2763 46.7781 49.4476C31.568 41.4365 16.358 33.7017 1.14793 25.6907C0.860938 25.4145 0.573966 25.4145 -1.07769e-06 24.862Z"
      fill="#FFB41D" fill-opacity="0.5" />
  </g>
  <defs>
    <clipPath id="clip0_167_237">
      <rect width="50" height="97" fill="white" transform="translate(97) rotate(90)" />
    </clipPath>
  </defs>
</svg>